<?xml version="1.0" encoding="UTF-8"?>
<!DOCTYPE svg PUBLIC "-//W3C//DTD SVG 1.1//EN" "http://www.w3.org/Graphics/SVG/1.1/DTD/svg11.dtd">
<svg version="1.2" xmlns="http://www.w3.org/2000/svg" xmlns:xlink="http://www.w3.org/1999/xlink" x="0" y="0" width="1245" height="1099" viewBox="0 0 1245 1099">
<style type="text/css"><![CDATA[
text { font:12px Dialog; }
]]></style>
<rect x="-1096" y="-1519" width="4430" height="4138" style="fill:rgb(255,255,255);stroke:none" />
<clipPath id="clip1"><path d="M15,15 L1230,15 L1230,1084 L15,1084 Z M26,506 C21.5820313,506 18,509.5820313 18,514 L18,583 C18,587.4179688 21.5820313,591 26,591 L225,591 C229.4179688,591 233,587.4179688 233,583 L233,514 C233,509.5820313 229.4179688,506 225,506 Z M26,506 Z M26,506" /></clipPath>
<path d="M243,549.0859375 C243,549.0390625 246.5820313,549 251,549 L269,549" style="fill:none;stroke:rgb(85,142,213)" clip-path="url(#clip1)" />
<clipPath id="clip2"><path d="M14,14 L1231,14 L1231,1085 L14,1085 L14,14 Z" /></clipPath>
<path d="M233,549.0351563 L243,549.0859375" style="fill:none;stroke:rgb(85,142,213)" clip-path="url(#clip2)" />
<clipPath id="clip3"><path d="M14,502 L238,502 L238,596 L14,596 L14,502 Z" /></clipPath>
<path d="M26,506 C21.5820313,506 18,509.5820313 18,514 L18,583 C18,587.4179688 21.5820313,591 26,591 L225,591 C229.4179688,591 233,587.4179688 233,583 L233,514 C233,509.5820313 229.4179688,506 225,506 Z M26,506" style="fill:rgb(220,230,242);stroke:none" clip-path="url(#clip3)" />
<clipPath id="clip4"><path d="M14,502 L238,502 L238,596 L14,596 L14,502 Z" /></clipPath>
<path d="M26,506 C21.5820313,506 18,509.5820313 18,514 L18,583 C18,587.4179688 21.5820313,591 26,591 L225,591 C229.4179688,591 233,587.4179688 233,583 L233,514 C233,509.5820313 229.4179688,506 225,506 Z M26,506" style="fill:none;stroke:rgb(85,142,213);stroke-width:5" clip-path="url(#clip4)" />
<text x="53" y="546" style="font:18px Dialog">EarthFile</text>
<clipPath id="clip5"><path d="M368,14 L908,14 L908,191 L368,191 L368,14 Z" /></clipPath>
<path d="M379,17 C374.5820313,17 371,20.5820313 371,25 L371,179 C371,183.4179688 374.5820313,187 379,187 L896,187 C900.4179688,187 904,183.4179688 904,179 L904,25 C904,20.5820313 900.4179688,17 896,17 Z M379,17" style="fill:rgb(195,214,155);opacity:0.2;stroke:none" clip-path="url(#clip5)" />
<clipPath id="clip6"><path d="M368,14 L908,14 L908,191 L368,191 L368,14 Z" /></clipPath>
<path d="M379,17 C374.5820313,17 371,20.5820313 371,25 L371,179 C371,183.4179688 374.5820313,187 379,187 L896,187 C900.4179688,187 904,183.4179688 904,179 L904,25 C904,20.5820313 900.4179688,17 896,17 Z M379,17" style="fill:none;stroke:rgb(119,147,60);stroke-width:3;stroke-dasharray:3,3;stroke-dashoffset:0" clip-path="url(#clip6)" />
<clipPath id="clip7"><path d="M268,15 L1230,15 L1230,1084 L268,1084 Z M274,522 C271.2382813,522 269,524.2382813 269,527 L269,571 C269,573.7617188 271.2382813,576 274,576 L343,576 C345.7617188,576 348,573.7617188 348,571 L348,527 C348,524.2382813 345.7617188,522 343,522 Z M274,522 Z M274,522" /></clipPath>
<path d="M361,549 L361,63 L381,63" style="fill:none;stroke:rgb(85,142,213)" clip-path="url(#clip7)" />
<clipPath id="clip8"><path d="M268,15 L1230,15 L1230,1084 L268,1084 Z M274,522 C271.2382813,522 269,524.2382813 269,527 L269,571 C269,573.7617188 271.2382813,576 274,576 L343,576 C345.7617188,576 348,573.7617188 348,571 L348,527 C348,524.2382813 345.7617188,522 343,522 Z M274,522 Z M274,522" /></clipPath>
<path d="M361,549 L361,137 L381,137" style="fill:none;stroke:rgb(85,142,213)" clip-path="url(#clip8)" />
<clipPath id="clip9"><path d="M268,15 L1230,15 L1230,1084 L268,1084 Z M274,522 C271.2382813,522 269,524.2382813 269,527 L269,571 C269,573.7617188 271.2382813,576 274,576 L343,576 C345.7617188,576 348,573.7617188 348,571 L348,527 C348,524.2382813 345.7617188,522 343,522 Z M274,522 Z M274,522" /></clipPath>
<path d="M361,549 L361,178 L381,178" style="fill:none;stroke:rgb(85,142,213)" clip-path="url(#clip9)" />
<clipPath id="clip10"><path d="M268,15 L1230,15 L1230,1084 L268,1084 Z M274,522 C271.2382813,522 269,524.2382813 269,527 L269,571 C269,573.7617188 271.2382813,576 274,576 L343,576 C345.7617188,576 348,573.7617188 348,571 L348,527 C348,524.2382813 345.7617188,522 343,522 Z M274,522 Z M274,522" /></clipPath>
<path d="M361,549 L361,291 L371,291" style="fill:none;stroke:rgb(85,142,213)" clip-path="url(#clip10)" />
<clipPath id="clip11"><path d="M268,15 L1230,15 L1230,1084 L268,1084 Z M274,522 C271.2382813,522 269,524.2382813 269,527 L269,571 C269,573.7617188 271.2382813,576 274,576 L343,576 C345.7617188,576 348,573.7617188 348,571 L348,527 C348,524.2382813 345.7617188,522 343,522 Z M274,522 Z M274,522" /></clipPath>
<path d="M361,549 L361,450 L371,450" style="fill:none;stroke:rgb(85,142,213)" clip-path="url(#clip11)" />
<clipPath id="clip12"><path d="M268,15 L1230,15 L1230,1084 L268,1084 Z M274,522 C271.2382813,522 269,524.2382813 269,527 L269,571 C269,573.7617188 271.2382813,576 274,576 L343,576 C345.7617188,576 348,573.7617188 348,571 L348,527 C348,524.2382813 345.7617188,522 343,522 Z M274,522 Z M274,522" /></clipPath>
<path d="M361,549 L361,739 L371,739" style="fill:none;stroke:rgb(85,142,213)" clip-path="url(#clip12)" />
<clipPath id="clip13"><path d="M268,15 L1230,15 L1230,1084 L268,1084 Z M274,522 C271.2382813,522 269,524.2382813 269,527 L269,571 C269,573.7617188 271.2382813,576 274,576 L343,576 C345.7617188,576 348,573.7617188 348,571 L348,527 C348,524.2382813 345.7617188,522 343,522 Z M274,522 Z M274,522" /></clipPath>
<path d="M361,549 L361,1046 L371,1046" style="fill:none;stroke:rgb(85,142,213)" clip-path="url(#clip13)" />
<clipPath id="clip14"><path d="M267,14 L1231,14 L1231,1085 L267,1085 L267,14 Z" /></clipPath>
<path d="M348,549 L361,549" style="fill:none;stroke:rgb(85,142,213)" clip-path="url(#clip14)" />
<clipPath id="clip15"><path d="M267,520 L351,520 L351,579 L267,579 L267,520 Z" /></clipPath>
<path d="M274,522 C271.2382813,522 269,524.2382813 269,527 L269,571 C269,573.7617188 271.2382813,576 274,576 L343,576 C345.7617188,576 348,573.7617188 348,571 L348,527 C348,524.2382813 345.7617188,522 343,522 Z M274,522" style="fill:rgb(220,230,242);stroke:none" clip-path="url(#clip15)" />
<clipPath id="clip16"><path d="M267,520 L351,520 L351,579 L267,579 L267,520 Z" /></clipPath>
<path d="M274,522 C271.2382813,522 269,524.2382813 269,527 L269,571 C269,573.7617188 271.2382813,576 274,576 L343,576 C345.7617188,576 348,573.7617188 348,571 L348,527 C348,524.2382813 345.7617188,522 343,522 Z M274,522" style="fill:none;stroke:rgb(85,142,213);stroke-width:2" clip-path="url(#clip16)" />
<text x="283" y="547" style="font:13px Dialog">map</text>
<clipPath id="clip17"><path d="M349,543 L362,543 L362,556 L349,556 L349,543 Z" /></clipPath>
<path d="M359.5,549 C359.5,546.515625 357.484375,544.5 355,544.5 C352.515625,544.5 350.5,546.515625 350.5,549 C350.5,551.484375 352.515625,553.5 355,553.5 C357.484375,553.5 359.5,551.484375 359.5,549 Z M359.5,549" style="fill:rgb(250,250,250);stroke:none" clip-path="url(#clip17)" />
<clipPath id="clip18"><path d="M349,543 L362,543 L362,556 L349,556 L349,543 Z" /></clipPath>
<path d="M359.5,549 C359.5,546.515625 357.484375,544.5 355,544.5 C352.515625,544.5 350.5,546.515625 350.5,549 C350.5,551.484375 352.515625,553.5 355,553.5 C357.484375,553.5 359.5,551.484375 359.5,549 Z M359.5,549" style="fill:none;stroke:rgb(85,142,213)" clip-path="url(#clip18)" />
<clipPath id="clip19"><path d="M349,543 L362,543 L362,556 L349,556 L349,543 Z" /></clipPath>
<path d="M353,549 L357,549" style="fill:none;stroke:rgb(150,160,200)" clip-path="url(#clip19)" />
<clipPath id="clip20"><path d="M378,24 L456,24 L456,66 L378,66 L378,24 Z" /></clipPath>
<path d="M381,63 L452,63 Z M381,63" style="fill:none;stroke:rgb(85,142,213);stroke-width:3" clip-path="url(#clip20)" />
<text x="392" y="44" style="font:10px Dialog">name</text>
<clipPath id="clip21"><path d="M379,66 L897,66 L897,139 L379,139 Z M381,101 L381,136 L441,136 L441,101 Z M381,101 Z M381,101" /></clipPath>
<path d="M513,110.296875 L441,115.9921875 L517.296875,121 L890,121 C892.7617188,121 895,118.7617188 895,116 L895,72 C895,69.2382813 892.7617188,67 890,67 L518,67 C515.2382813,67 513,69.2382813 513,72 Z M513,110.296875" style="fill:rgb(251,240,156);stroke:none" clip-path="url(#clip21)" />
<clipPath id="clip22"><path d="M379,66 L897,66 L897,139 L379,139 Z M381,101 L381,136 L441,136 L441,101 Z M381,101 Z M381,101" /></clipPath>
<path d="M513,110.296875 L441,115.9921875 L517.296875,121 L890,121 C892.7617188,121 895,118.7617188 895,116 L895,72 C895,69.2382813 892.7617188,67 890,67 L518,67 C515.2382813,67 513,69.2382813 513,72 Z M513,110.296875" style="fill:none;stroke:rgb(241,189,81);stroke-width:2" clip-path="url(#clip22)" />
<clipPath id="clip23"><path d="M378,98 L445,98 L445,140 L378,140 L378,98 Z" /></clipPath>
<path d="M381,137 L441,137 Z M381,137" style="fill:none;stroke:rgb(85,142,213);stroke-width:3" clip-path="url(#clip23)" />
<text x="392" y="118" style="font:10px Dialog">type</text>
<clipPath id="clip24"><path d="M511,66 L897,66 L897,124 L511,124 Z M381,101 L381,136 L441,136 L441,101 Z M381,101 Z M381,101" /></clipPath>
<path d="M513,110.296875 L441,115.9921875 L517.296875,121 L890,121 C892.7617188,121 895,118.7617188 895,116 L895,72 C895,69.2382813 892.7617188,67 890,67 L518,67 C515.2382813,67 513,69.2382813 513,72 Z M513,110.296875" style="fill:rgb(251,240,156);stroke:none" clip-path="url(#clip24)" />
<clipPath id="clip25"><path d="M511,66 L897,66 L897,124 L511,124 Z M381,101 L381,136 L441,136 L441,101 Z M381,101 Z M381,101" /></clipPath>
<path d="M513,110.296875 L441,115.9921875 L517.296875,121 L890,121 C892.7617188,121 895,118.7617188 895,116 L895,72 C895,69.2382813 892.7617188,67 890,67 L518,67 C515.2382813,67 513,69.2382813 513,72 Z M513,110.296875" style="fill:none;stroke:rgb(241,189,81);stroke-width:2" clip-path="url(#clip25)" />
<text x="527" y="92" style="font:13px Dialog">geocentric(球面)/projected(平面)</text>
<clipPath id="clip26"><path d="M378,139 L469,139 L469,181 L378,181 L378,139 Z" /></clipPath>
<path d="M381,178 L465,178 Z M381,178" style="fill:none;stroke:rgb(85,142,213);stroke-width:3" clip-path="url(#clip26)" />
<text x="392" y="159" style="font:10px Dialog">version</text>
<clipPath id="clip27"><path d="M506,190 L1031,190 L1031,367 L506,367 L506,190 Z" /></clipPath>
<path d="M517,193 C512.5820313,193 509,196.5820313 509,201 L509,355 C509,359.4179688 512.5820313,363 517,363 L1019,363 C1023.4179688,363 1027,359.4179688 1027,355 L1027,201 C1027,196.5820313 1023.4179688,193 1019,193 Z M517,193" style="fill:rgb(195,214,155);opacity:0.2;stroke:none" clip-path="url(#clip27)" />
<clipPath id="clip28"><path d="M506,190 L1031,190 L1031,367 L506,367 L506,190 Z" /></clipPath>
<path d="M517,193 C512.5820313,193 509,196.5820313 509,201 L509,355 C509,359.4179688 512.5820313,363 517,363 L1019,363 C1023.4179688,363 1027,359.4179688 1027,355 L1027,201 C1027,196.5820313 1023.4179688,193 1019,193 Z M517,193" style="fill:none;stroke:rgb(119,147,60);stroke-width:3;stroke-dasharray:3,3;stroke-dashoffset:0" clip-path="url(#clip28)" />
<clipPath id="clip29"><path d="M369,191 L1030,191 L1030,366 L369,366 Z M371,255 L371,290 L485,290 L485,255 Z M371,255 Z M371,255" /></clipPath>
<path d="M498,291 C502.6679688,256.3320313 509.6679688,239 519,239" style="fill:none;stroke:rgb(85,142,213)" clip-path="url(#clip29)" />
<clipPath id="clip30"><path d="M369,191 L1030,191 L1030,366 L369,366 Z M371,255 L371,290 L485,290 L485,255 Z M371,255 Z M371,255" /></clipPath>
<path d="M498,291 C502.6679688,305.6679688 509.6679688,313 519,313" style="fill:none;stroke:rgb(85,142,213)" clip-path="url(#clip30)" />
<clipPath id="clip31"><path d="M369,191 L1030,191 L1030,366 L369,366 Z M371,255 L371,290 L485,290 L485,255 Z M371,255 Z M371,255" /></clipPath>
<path d="M498,291 C502.6679688,333 509.6679688,354 519,354" style="fill:none;stroke:rgb(85,142,213)" clip-path="url(#clip31)" />
<clipPath id="clip32"><path d="M368,190 L1031,190 L1031,367 L368,367 L368,190 Z" /></clipPath>
<path d="M485,291 L498,291" style="fill:none;stroke:rgb(85,142,213)" clip-path="url(#clip32)" />
<clipPath id="clip33"><path d="M368,252 L489,252 L489,294 L368,294 L368,252 Z" /></clipPath>
<path d="M371,291 L485,291 Z M371,291" style="fill:none;stroke:rgb(85,142,213);stroke-width:3" clip-path="url(#clip33)" />
<text x="382" y="272" style="font:10px Dialog">heightfield</text>
<clipPath id="clip34"><path d="M487,267 L500,267 L500,280 L487,280 L487,267 Z" /></clipPath>
<path d="M497.5,273 C497.5,270.515625 495.484375,268.5 493,268.5 C490.515625,268.5 488.5,270.515625 488.5,273 C488.5,275.484375 490.515625,277.5 493,277.5 C495.484375,277.5 497.5,275.484375 497.5,273 Z M497.5,273" style="fill:rgb(250,250,250);stroke:none" clip-path="url(#clip34)" />
<clipPath id="clip35"><path d="M487,267 L500,267 L500,280 L487,280 L487,267 Z" /></clipPath>
<path d="M497.5,273 C497.5,270.515625 495.484375,268.5 493,268.5 C490.515625,268.5 488.5,270.515625 488.5,273 C488.5,275.484375 490.515625,277.5 493,277.5 C495.484375,277.5 497.5,275.484375 497.5,273 Z M497.5,273" style="fill:none;stroke:rgb(85,142,213)" clip-path="url(#clip35)" />
<clipPath id="clip36"><path d="M487,267 L500,267 L500,280 L487,280 L487,267 Z" /></clipPath>
<path d="M491,273 L495,273" style="fill:none;stroke:rgb(150,160,200)" clip-path="url(#clip36)" />
<clipPath id="clip37"><path d="M516,200 L594,200 L594,242 L516,242 L516,200 Z" /></clipPath>
<path d="M519,239 L590,239 Z M519,239" style="fill:none;stroke:rgb(85,142,213);stroke-width:3" clip-path="url(#clip37)" />
<text x="530" y="220" style="font:10px Dialog">name</text>
<clipPath id="clip38"><path d="M517,242 L1020,242 L1020,315 L517,315 Z M519,277 L519,312 L591,312 L591,277 Z M519,277 Z M519,277" /></clipPath>
<path d="M677,284.5742188 L591,291.4882813 L679.5742188,297 L1013,297 C1015.7617188,297 1018,294.7617188 1018,292 L1018,248 C1018,245.2382813 1015.7617188,243 1013,243 L682,243 C679.2382813,243 677,245.2382813 677,248 Z M677,284.5742188" style="fill:rgb(251,240,156);stroke:none" clip-path="url(#clip38)" />
<clipPath id="clip39"><path d="M517,242 L1020,242 L1020,315 L517,315 Z M519,277 L519,312 L591,312 L591,277 Z M519,277 Z M519,277" /></clipPath>
<path d="M677,284.5742188 L591,291.4882813 L679.5742188,297 L1013,297 C1015.7617188,297 1018,294.7617188 1018,292 L1018,248 C1018,245.2382813 1015.7617188,243 1013,243 L682,243 C679.2382813,243 677,245.2382813 677,248 Z M677,284.5742188" style="fill:none;stroke:rgb(241,189,81);stroke-width:2" clip-path="url(#clip39)" />
<clipPath id="clip40"><path d="M516,274 L595,274 L595,316 L516,316 L516,274 Z" /></clipPath>
<path d="M519,313 L591,313 Z M519,313" style="fill:none;stroke:rgb(85,142,213);stroke-width:3" clip-path="url(#clip40)" />
<text x="530" y="294" style="font:10px Dialog">driver</text>
<clipPath id="clip41"><path d="M675,242 L1020,242 L1020,300 L675,300 Z M519,277 L519,312 L591,312 L591,277 Z M519,277 Z M519,277" /></clipPath>
<path d="M677,284.5742188 L591,291.4882813 L679.5742188,297 L1013,297 C1015.7617188,297 1018,294.7617188 1018,292 L1018,248 C1018,245.2382813 1015.7617188,243 1013,243 L682,243 C679.2382813,243 677,245.2382813 677,248 Z M677,284.5742188" style="fill:rgb(251,240,156);stroke:none" clip-path="url(#clip41)" />
<clipPath id="clip42"><path d="M675,242 L1020,242 L1020,300 L675,300 Z M519,277 L519,312 L591,312 L591,277 Z M519,277 Z M519,277" /></clipPath>
<path d="M677,284.5742188 L591,291.4882813 L679.5742188,297 L1013,297 C1015.7617188,297 1018,294.7617188 1018,292 L1018,248 C1018,245.2382813 1015.7617188,243 1013,243 L682,243 C679.2382813,243 677,245.2382813 677,248 Z M677,284.5742188" style="fill:none;stroke:rgb(241,189,81);stroke-width:2" clip-path="url(#clip42)" />
<text x="691" y="268" style="font:13px Dialog">gdal/vpb/Composite/OSG/...</text>
<clipPath id="clip43"><path d="M516,315 L569,315 L569,357 L516,357 L516,315 Z" /></clipPath>
<path d="M519,354 L565,354 Z M519,354" style="fill:none;stroke:rgb(85,142,213);stroke-width:3" clip-path="url(#clip43)" />
<text x="530" y="335" style="font:10px Dialog">url</text>
<clipPath id="clip44"><path d="M467,366 L671,366 L671,445 L467,445 L467,366 Z" /></clipPath>
<path d="M478,369 C473.5820313,369 470,372.5820313 470,377 L470,433 C470,437.4179688 473.5820313,441 478,441 L659,441 C663.4179688,441 667,437.4179688 667,433 L667,377 C667,372.5820313 663.4179688,369 659,369 Z M478,369" style="fill:rgb(195,214,155);opacity:0.2;stroke:none" clip-path="url(#clip44)" />
<clipPath id="clip45"><path d="M467,366 L671,366 L671,445 L467,445 L467,366 Z" /></clipPath>
<path d="M478,369 C473.5820313,369 470,372.5820313 470,377 L470,433 C470,437.4179688 473.5820313,441 478,441 L659,441 C663.4179688,441 667,437.4179688 667,433 L667,377 C667,372.5820313 663.4179688,369 659,369 Z M478,369" style="fill:none;stroke:rgb(119,147,60);stroke-width:3;stroke-dasharray:3,3;stroke-dashoffset:0" clip-path="url(#clip45)" />
<clipPath id="clip46"><path d="M369,367 L670,367 L670,485 L369,485 Z M371,414 L371,449 L446,449 L446,414 Z M371,414 Z M371,414" /></clipPath>
<path d="M459,450 C463.6679688,434.6679688 470.6679688,427 480,427" style="fill:none;stroke:rgb(85,142,213)" clip-path="url(#clip46)" />
<clipPath id="clip47"><path d="M369,367 L670,367 L670,485 L369,485 Z M371,414 L371,449 L446,449 L446,414 Z M371,414 Z M371,414" /></clipPath>
<path d="M459,450 C461.4453125,472 465.109375,483 470,483" style="fill:none;stroke:rgb(85,142,213)" clip-path="url(#clip47)" />
<clipPath id="clip48"><path d="M368,366 L671,366 L671,486 L368,486 L368,366 Z" /></clipPath>
<path d="M446,450 L459,450" style="fill:none;stroke:rgb(85,142,213)" clip-path="url(#clip48)" />
<clipPath id="clip49"><path d="M368,411 L450,411 L450,453 L368,453 L368,411 Z" /></clipPath>
<path d="M371,450 L446,450 Z M371,450" style="fill:none;stroke:rgb(85,142,213);stroke-width:3" clip-path="url(#clip49)" />
<text x="382" y="431" style="font:10px Dialog">image</text>
<clipPath id="clip50"><path d="M448,426 L461,426 L461,439 L448,439 L448,426 Z" /></clipPath>
<path d="M458.5,432 C458.5,429.515625 456.484375,427.5 454,427.5 C451.515625,427.5 449.5,429.515625 449.5,432 C449.5,434.484375 451.515625,436.5 454,436.5 C456.484375,436.5 458.5,434.484375 458.5,432 Z M458.5,432" style="fill:rgb(250,250,250);stroke:none" clip-path="url(#clip50)" />
<clipPath id="clip51"><path d="M448,426 L461,426 L461,439 L448,439 L448,426 Z" /></clipPath>
<path d="M458.5,432 C458.5,429.515625 456.484375,427.5 454,427.5 C451.515625,427.5 449.5,429.515625 449.5,432 C449.5,434.484375 451.515625,436.5 454,436.5 C456.484375,436.5 458.5,434.484375 458.5,432 Z M458.5,432" style="fill:none;stroke:rgb(85,142,213)" clip-path="url(#clip51)" />
<clipPath id="clip52"><path d="M448,426 L461,426 L461,439 L448,439 L448,426 Z" /></clipPath>
<path d="M452,432 L456,432" style="fill:none;stroke:rgb(150,160,200)" clip-path="url(#clip52)" />
<clipPath id="clip53"><path d="M478,377 L660,377 L660,434 L478,434 Z M480,391 L480,426 L552,426 L552,391 Z M480,391 Z M480,391" /></clipPath>
<path d="M581,406.4882813 L552,407.2890625 L581,416.4882813 L581,427 C581,429.7617188 583.2382813,432 586,432 L653,432 C655.7617188,432 658,429.7617188 658,427 L658,383 C658,380.2382813 655.7617188,378 653,378 L586,378 C583.2382813,378 581,380.2382813 581,383 Z M581,406.4882813" style="fill:rgb(251,240,156);stroke:none" clip-path="url(#clip53)" />
<clipPath id="clip54"><path d="M478,377 L660,377 L660,434 L478,434 Z M480,391 L480,426 L552,426 L552,391 Z M480,391 Z M480,391" /></clipPath>
<path d="M581,406.4882813 L552,407.2890625 L581,416.4882813 L581,427 C581,429.7617188 583.2382813,432 586,432 L653,432 C655.7617188,432 658,429.7617188 658,427 L658,383 C658,380.2382813 655.7617188,378 653,378 L586,378 C583.2382813,378 581,380.2382813 581,383 Z M581,406.4882813" style="fill:none;stroke:rgb(241,189,81);stroke-width:2" clip-path="url(#clip54)" />
<clipPath id="clip55"><path d="M477,388 L556,388 L556,430 L477,430 L477,388 Z" /></clipPath>
<path d="M480,427 L552,427 Z M480,427" style="fill:none;stroke:rgb(85,142,213);stroke-width:3" clip-path="url(#clip55)" />
<text x="491" y="408" style="font:10px Dialog">driver</text>
<clipPath id="clip56"><path d="M579,377 L660,377 L660,434 L579,434 Z M480,391 L480,426 L552,426 L552,391 Z M480,391 Z M480,391" /></clipPath>
<path d="M581,406.4882813 L552,407.2890625 L581,416.4882813 L581,427 C581,429.7617188 583.2382813,432 586,432 L653,432 C655.7617188,432 658,429.7617188 658,427 L658,383 C658,380.2382813 655.7617188,378 653,378 L586,378 C583.2382813,378 581,380.2382813 581,383 Z M581,406.4882813" style="fill:rgb(251,240,156);stroke:none" clip-path="url(#clip56)" />
<clipPath id="clip57"><path d="M579,377 L660,377 L660,434 L579,434 Z M480,391 L480,426 L552,426 L552,391 Z M480,391 Z M480,391" /></clipPath>
<path d="M581,406.4882813 L552,407.2890625 L581,416.4882813 L581,427 C581,429.7617188 583.2382813,432 586,432 L653,432 C655.7617188,432 658,429.7617188 658,427 L658,383 C658,380.2382813 655.7617188,378 653,378 L586,378 C583.2382813,378 581,380.2382813 581,383 Z M581,406.4882813" style="fill:none;stroke:rgb(241,189,81);stroke-width:2" clip-path="url(#clip57)" />
<text x="595" y="403" style="font:13px Dialog">gdal</text>
<clipPath id="clip58"><path d="M467,444 L520,444 L520,486 L467,486 L467,444 Z" /></clipPath>
<path d="M470,483 L516,483 Z M470,483" style="fill:none;stroke:rgb(85,142,213);stroke-width:3" clip-path="url(#clip58)" />
<text x="481" y="464" style="font:10px Dialog">url</text>
<clipPath id="clip59"><path d="M369,486 L1230,486 L1230,965 L369,965 Z M371,703 L371,738 L525,738 L525,703 Z M371,703 Z M371,703" /></clipPath>
<path d="M538,739 C540.4453125,603.6679688 544.109375,536 549,536" style="fill:none;stroke:rgb(85,142,213)" clip-path="url(#clip59)" />
<clipPath id="clip60"><path d="M369,486 L1230,486 L1230,965 L369,965 Z M371,703 L371,738 L525,738 L525,703 Z M371,703 Z M371,703" /></clipPath>
<path d="M538,739 C540.4453125,661 544.109375,622 549,622" style="fill:none;stroke:rgb(85,142,213)" clip-path="url(#clip60)" />
<clipPath id="clip61"><path d="M369,486 L1230,486 L1230,965 L369,965 Z M371,703 L371,738 L525,738 L525,703 Z M371,703 Z M371,703" /></clipPath>
<path d="M538,739 C540.4453125,697 544.109375,676 549,676" style="fill:none;stroke:rgb(85,142,213)" clip-path="url(#clip61)" />
<clipPath id="clip62"><path d="M369,486 L1230,486 L1230,965 L369,965 Z M371,703 L371,738 L525,738 L525,703 Z M371,703 Z M371,703" /></clipPath>
<path d="M538,739 C540.4453125,813 544.109375,850 549,850" style="fill:none;stroke:rgb(85,142,213)" clip-path="url(#clip62)" />
<clipPath id="clip63"><path d="M369,486 L1230,486 L1230,965 L369,965 Z M371,703 L371,738 L525,738 L525,703 Z M371,703 Z M371,703" /></clipPath>
<path d="M538,739 C540.4453125,874.3320313 544.109375,942 549,942" style="fill:none;stroke:rgb(85,142,213)" clip-path="url(#clip63)" />
<clipPath id="clip64"><path d="M368,485 L1231,485 L1231,966 L368,966 L368,485 Z" /></clipPath>
<path d="M525,739 L538,739" style="fill:none;stroke:rgb(85,142,213)" clip-path="url(#clip64)" />
<clipPath id="clip65"><path d="M368,700 L529,700 L529,742 L368,742 L368,700 Z" /></clipPath>
<path d="M371,739 L525,739 Z M371,739" style="fill:none;stroke:rgb(85,142,213);stroke-width:3" clip-path="url(#clip65)" />
<text x="382" y="719" style="font:10px Dialog">image/如国界线</text>
<clipPath id="clip66"><path d="M527,715 L540,715 L540,728 L527,728 L527,715 Z" /></clipPath>
<path d="M537.5,721 C537.5,718.515625 535.484375,716.5 533,716.5 C530.515625,716.5 528.5,718.515625 528.5,721 C528.5,723.484375 530.515625,725.5 533,725.5 C535.484375,725.5 537.5,723.484375 537.5,721 Z M537.5,721" style="fill:rgb(250,250,250);stroke:none" clip-path="url(#clip66)" />
<clipPath id="clip67"><path d="M527,715 L540,715 L540,728 L527,728 L527,715 Z" /></clipPath>
<path d="M537.5,721 C537.5,718.515625 535.484375,716.5 533,716.5 C530.515625,716.5 528.5,718.515625 528.5,721 C528.5,723.484375 530.515625,725.5 533,725.5 C535.484375,725.5 537.5,723.484375 537.5,721 Z M537.5,721" style="fill:none;stroke:rgb(85,142,213)" clip-path="url(#clip67)" />
<clipPath id="clip68"><path d="M527,715 L540,715 L540,728 L527,728 L527,715 Z" /></clipPath>
<path d="M531,721 L535,721" style="fill:none;stroke:rgb(150,160,200)" clip-path="url(#clip68)" />
<clipPath id="clip69"><path d="M547,486 L1072,486 L1072,543 L547,543 Z M549,500 L549,535 L621,535 L621,500 Z M549,500 Z M549,500" /></clipPath>
<path d="M714,516.3203125 L621,517.0898438 L714,526.3203125 L714,536 C714,538.7617188 716.2382813,541 719,541 L1065,541 C1067.7617188,541 1070,538.7617188 1070,536 L1070,492 C1070,489.2382813 1067.7617188,487 1065,487 L719,487 C716.2382813,487 714,489.2382813 714,492 Z M714,516.3203125" style="fill:rgb(251,240,156);stroke:none" clip-path="url(#clip69)" />
<clipPath id="clip70"><path d="M547,486 L1072,486 L1072,543 L547,543 Z M549,500 L549,535 L621,535 L621,500 Z M549,500 Z M549,500" /></clipPath>
<path d="M714,516.3203125 L621,517.0898438 L714,526.3203125 L714,536 C714,538.7617188 716.2382813,541 719,541 L1065,541 C1067.7617188,541 1070,538.7617188 1070,536 L1070,492 C1070,489.2382813 1067.7617188,487 1065,487 L719,487 C716.2382813,487 714,489.2382813 714,492 Z M714,516.3203125" style="fill:none;stroke:rgb(241,189,81);stroke-width:2" clip-path="url(#clip70)" />
<clipPath id="clip71"><path d="M546,497 L625,497 L625,539 L546,539 L546,497 Z" /></clipPath>
<path d="M549,536 L621,536 Z M549,536" style="fill:none;stroke:rgb(85,142,213);stroke-width:3" clip-path="url(#clip71)" />
<text x="560" y="517" style="font:10px Dialog">driver</text>
<clipPath id="clip72"><path d="M712,486 L1072,486 L1072,543 L712,543 Z M549,500 L549,535 L621,535 L621,500 Z M549,500 Z M549,500" /></clipPath>
<path d="M714,516.3203125 L621,517.0898438 L714,526.3203125 L714,536 C714,538.7617188 716.2382813,541 719,541 L1065,541 C1067.7617188,541 1070,538.7617188 1070,536 L1070,492 C1070,489.2382813 1067.7617188,487 1065,487 L719,487 C716.2382813,487 714,489.2382813 714,492 Z M714,516.3203125" style="fill:rgb(251,240,156);stroke:none" clip-path="url(#clip72)" />
<clipPath id="clip73"><path d="M712,486 L1072,486 L1072,543 L712,543 Z M549,500 L549,535 L621,535 L621,500 Z M549,500 Z M549,500" /></clipPath>
<path d="M714,516.3203125 L621,517.0898438 L714,526.3203125 L714,536 C714,538.7617188 716.2382813,541 719,541 L1065,541 C1067.7617188,541 1070,538.7617188 1070,536 L1070,492 C1070,489.2382813 1067.7617188,487 1065,487 L719,487 C716.2382813,487 714,489.2382813 714,492 Z M714,516.3203125" style="fill:none;stroke:rgb(241,189,81);stroke-width:2" clip-path="url(#clip73)" />
<text x="728" y="512" style="font:13px Dialog">agglite将矢量文件变为栅格文件</text>
<clipPath id="clip74"><path d="M547,544 L1160,544 L1160,637 L547,637 Z M549,586 L549,621 L701,621 L701,586 Z M549,586 Z M549,586" /></clipPath>
<path d="M724,599.6132813 L701,600.2539063 L724,609.6132813 L724,630 C724,632.7617188 726.2382813,635 729,635 L1153,635 C1155.7617188,635 1158,632.7617188 1158,630 L1158,550 C1158,547.2382813 1155.7617188,545 1153,545 L729,545 C726.2382813,545 724,547.2382813 724,550 Z M724,599.6132813" style="fill:rgb(251,240,156);stroke:none" clip-path="url(#clip74)" />
<clipPath id="clip75"><path d="M547,544 L1160,544 L1160,637 L547,637 Z M549,586 L549,621 L701,621 L701,586 Z M549,586 Z M549,586" /></clipPath>
<path d="M724,599.6132813 L701,600.2539063 L724,609.6132813 L724,630 C724,632.7617188 726.2382813,635 729,635 L1153,635 C1155.7617188,635 1158,632.7617188 1158,630 L1158,550 C1158,547.2382813 1155.7617188,545 1153,545 L729,545 C726.2382813,545 724,547.2382813 724,550 Z M724,599.6132813" style="fill:none;stroke:rgb(241,189,81);stroke-width:2" clip-path="url(#clip75)" />
<clipPath id="clip76"><path d="M546,583 L705,583 L705,625 L546,625 L546,583 Z" /></clipPath>
<path d="M549,622 L701,622 Z M549,622" style="fill:none;stroke:rgb(85,142,213);stroke-width:3" clip-path="url(#clip76)" />
<text x="560" y="602" style="font:10px Dialog">geometry_type</text>
<clipPath id="clip77"><path d="M722,544 L1160,544 L1160,637 L722,637 Z M549,586 L549,621 L701,621 L701,586 Z M549,586 Z M549,586" /></clipPath>
<path d="M724,599.6132813 L701,600.2539063 L724,609.6132813 L724,630 C724,632.7617188 726.2382813,635 729,635 L1153,635 C1155.7617188,635 1158,632.7617188 1158,630 L1158,550 C1158,547.2382813 1155.7617188,545 1153,545 L729,545 C726.2382813,545 724,547.2382813 724,550 Z M724,599.6132813" style="fill:rgb(251,240,156);stroke:none" clip-path="url(#clip77)" />
<clipPath id="clip78"><path d="M722,544 L1160,544 L1160,637 L722,637 Z M549,586 L549,621 L701,621 L701,586 Z M549,586 Z M549,586" /></clipPath>
<path d="M724,599.6132813 L701,600.2539063 L724,609.6132813 L724,630 C724,632.7617188 726.2382813,635 729,635 L1153,635 C1155.7617188,635 1158,632.7617188 1158,630 L1158,550 C1158,547.2382813 1155.7617188,545 1153,545 L729,545 C726.2382813,545 724,547.2382813 724,550 Z M724,599.6132813" style="fill:none;stroke:rgb(241,189,81);stroke-width:2" clip-path="url(#clip78)" />
<text x="738" y="569" style="font:13px Dialog">line/linestring/point/pointset/points/</text>
<text x="738" y="605" style="font:13px Dialog">polygon/polygons</text>
<clipPath id="clip79"><path d="M546,637 L722,637 L722,679 L546,679 L546,637 Z" /></clipPath>
<path d="M549,676 L718,676 Z M549,676" style="fill:none;stroke:rgb(85,142,213);stroke-width:3" clip-path="url(#clip79)" />
<text x="560" y="656" style="font:10px Dialog">relative_line_size</text>
<clipPath id="clip80"><path d="M547,679 L1230,679 L1230,883 L547,883 Z M549,814 L549,849 L619,849 L619,814 Z M549,814 Z M549,814" /></clipPath>
<path d="M632,850 C634.4453125,830 638.109375,820 643,820" style="fill:none;stroke:rgb(85,142,213)" clip-path="url(#clip80)" />
<clipPath id="clip81"><path d="M547,679 L1230,679 L1230,883 L547,883 Z M549,814 L549,849 L619,849 L619,814 Z M549,814 Z M549,814" /></clipPath>
<path d="M632,850 C634.4453125,870.6679688 638.109375,881 643,881" style="fill:none;stroke:rgb(85,142,213)" clip-path="url(#clip81)" />
<clipPath id="clip82"><path d="M546,678 L1231,678 L1231,884 L546,884 L546,678 Z" /></clipPath>
<path d="M619,850 L632,850" style="fill:none;stroke:rgb(85,142,213)" clip-path="url(#clip82)" />
<clipPath id="clip83"><path d="M546,811 L623,811 L623,853 L546,853 L546,811 Z" /></clipPath>
<path d="M549,850 L619,850 Z M549,850" style="fill:none;stroke:rgb(85,142,213);stroke-width:3" clip-path="url(#clip83)" />
<text x="560" y="830" style="font:10px Dialog">styles</text>
<clipPath id="clip84"><path d="M621,826 L634,826 L634,839 L621,839 L621,826 Z" /></clipPath>
<path d="M631.5,832 C631.5,829.515625 629.484375,827.5 627,827.5 C624.515625,827.5 622.5,829.515625 622.5,832 C622.5,834.484375 624.515625,836.5 627,836.5 C629.484375,836.5 631.5,834.484375 631.5,832 Z M631.5,832" style="fill:rgb(250,250,250);stroke:none" clip-path="url(#clip84)" />
<clipPath id="clip85"><path d="M621,826 L634,826 L634,839 L621,839 L621,826 Z" /></clipPath>
<path d="M631.5,832 C631.5,829.515625 629.484375,827.5 627,827.5 C624.515625,827.5 622.5,829.515625 622.5,832 C622.5,834.484375 624.515625,836.5 627,836.5 C629.484375,836.5 631.5,834.484375 631.5,832 Z M631.5,832" style="fill:none;stroke:rgb(85,142,213)" clip-path="url(#clip85)" />
<clipPath id="clip86"><path d="M621,826 L634,826 L634,839 L621,839 L621,826 Z" /></clipPath>
<path d="M625,832 L629,832" style="fill:none;stroke:rgb(150,160,200)" clip-path="url(#clip86)" />
<clipPath id="clip87"><path d="M726,781 L813,781 L813,843 L726,843 L726,781 Z" /></clipPath>
<path d="M737,784 C732.5820313,784 729,787.5820313 729,792 L729,831 C729,835.4179688 732.5820313,839 737,839 L801,839 C805.4179688,839 809,835.4179688 809,831 L809,792 C809,787.5820313 805.4179688,784 801,784 Z M737,784" style="fill:rgb(195,214,155);opacity:0.2;stroke:none" clip-path="url(#clip87)" />
<clipPath id="clip88"><path d="M726,781 L813,781 L813,843 L726,843 L726,781 Z" /></clipPath>
<path d="M737,784 C732.5820313,784 729,787.5820313 729,792 L729,831 C729,835.4179688 732.5820313,839 737,839 L801,839 C805.4179688,839 809,835.4179688 809,831 L809,792 C809,787.5820313 805.4179688,784 801,784 Z M737,784" style="fill:none;stroke:rgb(119,147,60);stroke-width:3;stroke-dasharray:3,3;stroke-dashoffset:0" clip-path="url(#clip88)" />
<clipPath id="clip89"><path d="M641,679 L1230,679 L1230,842 L641,842 Z M643,784 L643,819 L705,819 L705,784 Z M643,784 Z M643,784" /></clipPath>
<path d="M718,820 C722.6679688,826.6679688 729.6679688,830 739,830" style="fill:none;stroke:rgb(85,142,213)" clip-path="url(#clip89)" />
<clipPath id="clip90"><path d="M640,678 L1231,678 L1231,843 L640,843 L640,678 Z" /></clipPath>
<path d="M705,820 L718,820" style="fill:none;stroke:rgb(85,142,213)" clip-path="url(#clip90)" />
<clipPath id="clip91"><path d="M641,679 L1230,679 L1230,842 L641,842 Z M643,784 L643,819 L705,819 L705,784 Z M643,784 Z M643,784" /></clipPath>
<path d="M805.7421875,770 L705,794.0195313 L795.7421875,770 L759,770 C756.2382813,770 754,767.7617188 754,765 L754,685 C754,682.2382813 756.2382813,680 759,680 L1223,680 C1225.7617188,680 1228,682.2382813 1228,685 L1228,765 C1228,767.7617188 1225.7617188,770 1223,770 Z M805.7421875,770" style="fill:rgb(251,240,156);stroke:none" clip-path="url(#clip91)" />
<clipPath id="clip92"><path d="M641,679 L1230,679 L1230,842 L641,842 Z M643,784 L643,819 L705,819 L705,784 Z M643,784 Z M643,784" /></clipPath>
<path d="M805.7421875,770 L705,794.0195313 L795.7421875,770 L759,770 C756.2382813,770 754,767.7617188 754,765 L754,685 C754,682.2382813 756.2382813,680 759,680 L1223,680 C1225.7617188,680 1228,682.2382813 1228,685 L1228,765 C1228,767.7617188 1225.7617188,770 1223,770 Z M805.7421875,770" style="fill:none;stroke:rgb(241,189,81);stroke-width:2" clip-path="url(#clip92)" />
<clipPath id="clip93"><path d="M640,781 L709,781 L709,823 L640,823 L640,781 Z" /></clipPath>
<path d="M643,820 L705,820 Z M643,820" style="fill:none;stroke:rgb(85,142,213);stroke-width:3" clip-path="url(#clip93)" />
<text x="654" y="800" style="font:10px Dialog">style</text>
<clipPath id="clip94"><path d="M707,796 L720,796 L720,809 L707,809 L707,796 Z" /></clipPath>
<path d="M717.5,802 C717.5,799.515625 715.484375,797.5 713,797.5 C710.515625,797.5 708.5,799.515625 708.5,802 C708.5,804.484375 710.515625,806.5 713,806.5 C715.484375,806.5 717.5,804.484375 717.5,802 Z M717.5,802" style="fill:rgb(250,250,250);stroke:none" clip-path="url(#clip94)" />
<clipPath id="clip95"><path d="M707,796 L720,796 L720,809 L707,809 L707,796 Z" /></clipPath>
<path d="M717.5,802 C717.5,799.515625 715.484375,797.5 713,797.5 C710.515625,797.5 708.5,799.515625 708.5,802 C708.5,804.484375 710.515625,806.5 713,806.5 C715.484375,806.5 717.5,804.484375 717.5,802 Z M717.5,802" style="fill:none;stroke:rgb(85,142,213)" clip-path="url(#clip95)" />
<clipPath id="clip96"><path d="M707,796 L720,796 L720,809 L707,809 L707,796 Z" /></clipPath>
<path d="M711,802 L715,802" style="fill:none;stroke:rgb(150,160,200)" clip-path="url(#clip96)" />
<clipPath id="clip97"><path d="M736,791 L803,791 L803,833 L736,833 L736,791 Z" /></clipPath>
<path d="M739,830 L799,830 Z M739,830" style="fill:none;stroke:rgb(85,142,213);stroke-width:3" clip-path="url(#clip97)" />
<text x="750" y="810" style="font:10px Dialog">type</text>
<clipPath id="clip98"><path d="M752,679 L1230,679 L1230,773 L752,773 Z M643,784 L643,819 L705,819 L705,784 Z M643,784 Z M643,784" /></clipPath>
<path d="M805.7421875,770 L705,794.0195313 L795.7421875,770 L759,770 C756.2382813,770 754,767.7617188 754,765 L754,685 C754,682.2382813 756.2382813,680 759,680 L1223,680 C1225.7617188,680 1228,682.2382813 1228,685 L1228,765 C1228,767.7617188 1225.7617188,770 1223,770 Z M805.7421875,770" style="fill:rgb(251,240,156);stroke:none" clip-path="url(#clip98)" />
<clipPath id="clip99"><path d="M752,679 L1230,679 L1230,773 L752,773 Z M643,784 L643,819 L705,819 L705,784 Z M643,784 Z M643,784" /></clipPath>
<path d="M805.7421875,770 L705,794.0195313 L795.7421875,770 L759,770 C756.2382813,770 754,767.7617188 754,765 L754,685 C754,682.2382813 756.2382813,680 759,680 L1223,680 C1225.7617188,680 1228,682.2382813 1228,685 L1228,765 C1228,767.7617188 1225.7617188,770 1223,770 Z M805.7421875,770" style="fill:none;stroke:rgb(241,189,81);stroke-width:2" clip-path="url(#clip99)" />
<text x="768" y="704" style="font:13px Dialog">stroke;stroke-width;stoke-opacity fill;fill-</text>
<text x="768" y="740" style="font:13px Dialog">opacity</text>
<clipPath id="clip100"><path d="M640,842 L685,842 L685,884 L640,884 L640,842 Z" /></clipPath>
<path d="M643,881 L681,881 Z M643,881" style="fill:none;stroke:rgb(85,142,213);stroke-width:3" clip-path="url(#clip100)" />
<text x="654" y="861" style="font:10px Dialog">...</text>
<clipPath id="clip101"><path d="M547,884 L856,884 L856,965 L547,965 Z M549,906 L549,941 L641,941 L641,906 Z M549,906 Z M549,906" /></clipPath>
<path d="M654,942 C656.4453125,928.6679688 660.109375,922 665,922" style="fill:none;stroke:rgb(85,142,213)" clip-path="url(#clip101)" />
<clipPath id="clip102"><path d="M547,884 L856,884 L856,965 L547,965 Z M549,906 L549,941 L641,941 L641,906 Z M549,906 Z M549,906" /></clipPath>
<path d="M654,942 C656.4453125,956 660.109375,963 665,963" style="fill:none;stroke:rgb(85,142,213)" clip-path="url(#clip102)" />
<clipPath id="clip103"><path d="M546,883 L857,883 L857,966 L546,966 L546,883 Z" /></clipPath>
<path d="M641,942 L654,942" style="fill:none;stroke:rgb(85,142,213)" clip-path="url(#clip103)" />
<clipPath id="clip104"><path d="M546,903 L645,903 L645,945 L546,945 L546,903 Z" /></clipPath>
<path d="M549,942 L641,942 Z M549,942" style="fill:none;stroke:rgb(85,142,213);stroke-width:3" clip-path="url(#clip104)" />
<text x="560" y="922" style="font:10px Dialog">features</text>
<clipPath id="clip105"><path d="M643,918 L656,918 L656,931 L643,931 L643,918 Z" /></clipPath>
<path d="M653.5,924 C653.5,921.515625 651.484375,919.5 649,919.5 C646.515625,919.5 644.5,921.515625 644.5,924 C644.5,926.484375 646.515625,928.5 649,928.5 C651.484375,928.5 653.5,926.484375 653.5,924 Z M653.5,924" style="fill:rgb(250,250,250);stroke:none" clip-path="url(#clip105)" />
<clipPath id="clip106"><path d="M643,918 L656,918 L656,931 L643,931 L643,918 Z" /></clipPath>
<path d="M653.5,924 C653.5,921.515625 651.484375,919.5 649,919.5 C646.515625,919.5 644.5,921.515625 644.5,924 C644.5,926.484375 646.515625,928.5 649,928.5 C651.484375,928.5 653.5,926.484375 653.5,924 Z M653.5,924" style="fill:none;stroke:rgb(85,142,213)" clip-path="url(#clip106)" />
<clipPath id="clip107"><path d="M643,918 L656,918 L656,931 L643,931 L643,918 Z" /></clipPath>
<path d="M647,924 L651,924" style="fill:none;stroke:rgb(150,160,200)" clip-path="url(#clip107)" />
<clipPath id="clip108"><path d="M662,883 L715,883 L715,925 L662,925 L662,883 Z" /></clipPath>
<path d="M665,922 L711,922 Z M665,922" style="fill:none;stroke:rgb(85,142,213);stroke-width:3" clip-path="url(#clip108)" />
<text x="676" y="902" style="font:10px Dialog">url</text>
<clipPath id="clip109"><path d="M662,924 L857,924 L857,966 L662,966 L662,924 Z" /></clipPath>
<path d="M665,963 L853,963 Z M665,963" style="fill:none;stroke:rgb(85,142,213);stroke-width:3" clip-path="url(#clip109)" />
<text x="676" y="943" style="font:10px Dialog">build_spatial_index</text>
<clipPath id="clip110"><path d="M369,966 L821,966 L821,1084 L369,1084 Z M371,1010 L371,1045 L450,1045 L450,1010 Z M371,1010 Z M371,1010" /></clipPath>
<path d="M463,1046 C465.4453125,1046 469.109375,1046 474,1046" style="fill:none;stroke:rgb(85,142,213)" clip-path="url(#clip110)" />
<clipPath id="clip111"><path d="M368,965 L822,965 L822,1085 L368,1085 L368,965 Z" /></clipPath>
<path d="M450,1046 L463,1046" style="fill:none;stroke:rgb(85,142,213)" clip-path="url(#clip111)" />
<clipPath id="clip112"><path d="M368,1007 L454,1007 L454,1049 L368,1049 L368,1007 Z" /></clipPath>
<path d="M371,1046 L450,1046 Z M371,1046" style="fill:none;stroke:rgb(85,142,213);stroke-width:3" clip-path="url(#clip112)" />
<text x="382" y="1026" style="font:10px Dialog">option</text>
<clipPath id="clip113"><path d="M452,1022 L465,1022 L465,1035 L452,1035 L452,1022 Z" /></clipPath>
<path d="M462.5,1028 C462.5,1025.515625 460.484375,1023.5 458,1023.5 C455.515625,1023.5 453.5,1025.515625 453.5,1028 C453.5,1030.484375 455.515625,1032.5 458,1032.5 C460.484375,1032.5 462.5,1030.484375 462.5,1028 Z M462.5,1028" style="fill:rgb(250,250,250);stroke:none" clip-path="url(#clip113)" />
<clipPath id="clip114"><path d="M452,1022 L465,1022 L465,1035 L452,1035 L452,1022 Z" /></clipPath>
<path d="M462.5,1028 C462.5,1025.515625 460.484375,1023.5 458,1023.5 C455.515625,1023.5 453.5,1025.515625 453.5,1028 C453.5,1030.484375 455.515625,1032.5 458,1032.5 C460.484375,1032.5 462.5,1030.484375 462.5,1028 Z M462.5,1028" style="fill:none;stroke:rgb(85,142,213)" clip-path="url(#clip114)" />
<clipPath id="clip115"><path d="M452,1022 L465,1022 L465,1035 L452,1035 L452,1022 Z" /></clipPath>
<path d="M456,1028 L460,1028" style="fill:none;stroke:rgb(150,160,200)" clip-path="url(#clip115)" />
<clipPath id="clip116"><path d="M567,965 L822,965 L822,1044 L567,1044 L567,965 Z" /></clipPath>
<path d="M578,968 C573.5820313,968 570,971.5820313 570,976 L570,1032 C570,1036.4179688 573.5820313,1040 578,1040 L810,1040 C814.4179688,1040 818,1036.4179688 818,1032 L818,976 C818,971.5820313 814.4179688,968 810,968 Z M578,968" style="fill:rgb(195,214,155);opacity:0.2;stroke:none" clip-path="url(#clip116)" />
<clipPath id="clip117"><path d="M567,965 L822,965 L822,1044 L567,1044 L567,965 Z" /></clipPath>
<path d="M578,968 C573.5820313,968 570,971.5820313 570,976 L570,1032 C570,1036.4179688 573.5820313,1040 578,1040 L810,1040 C814.4179688,1040 818,1036.4179688 818,1032 L818,976 C818,971.5820313 814.4179688,968 810,968 Z M578,968" style="fill:none;stroke:rgb(119,147,60);stroke-width:3;stroke-dasharray:3,3;stroke-dashoffset:0" clip-path="url(#clip117)" />
<clipPath id="clip118"><path d="M472,966 L821,966 L821,1084 L472,1084 Z M474,1010 L474,1045 L546,1045 L546,1010 Z M474,1010 Z M474,1010" /></clipPath>
<path d="M559,1046 C563.6679688,1029.3320313 570.6679688,1021 580,1021" style="fill:none;stroke:rgb(85,142,213)" clip-path="url(#clip118)" />
<clipPath id="clip119"><path d="M472,966 L821,966 L821,1084 L472,1084 Z M474,1010 L474,1045 L546,1045 L546,1010 Z M474,1010 Z M474,1010" /></clipPath>
<path d="M559,1046 C561.4453125,1070 565.109375,1082 570,1082" style="fill:none;stroke:rgb(85,142,213)" clip-path="url(#clip119)" />
<clipPath id="clip120"><path d="M471,965 L822,965 L822,1085 L471,1085 L471,965 Z" /></clipPath>
<path d="M546,1046 L559,1046" style="fill:none;stroke:rgb(85,142,213)" clip-path="url(#clip120)" />
<clipPath id="clip121"><path d="M471,1007 L550,1007 L550,1049 L471,1049 L471,1007 Z" /></clipPath>
<path d="M474,1046 L546,1046 Z M474,1046" style="fill:none;stroke:rgb(85,142,213);stroke-width:3" clip-path="url(#clip121)" />
<text x="485" y="1026" style="font:10px Dialog">cache</text>
<clipPath id="clip122"><path d="M548,1022 L561,1022 L561,1035 L548,1035 L548,1022 Z" /></clipPath>
<path d="M558.5,1028 C558.5,1025.515625 556.484375,1023.5 554,1023.5 C551.515625,1023.5 549.5,1025.515625 549.5,1028 C549.5,1030.484375 551.515625,1032.5 554,1032.5 C556.484375,1032.5 558.5,1030.484375 558.5,1028 Z M558.5,1028" style="fill:rgb(250,250,250);stroke:none" clip-path="url(#clip122)" />
<clipPath id="clip123"><path d="M548,1022 L561,1022 L561,1035 L548,1035 L548,1022 Z" /></clipPath>
<path d="M558.5,1028 C558.5,1025.515625 556.484375,1023.5 554,1023.5 C551.515625,1023.5 549.5,1025.515625 549.5,1028 C549.5,1030.484375 551.515625,1032.5 554,1032.5 C556.484375,1032.5 558.5,1030.484375 558.5,1028 Z M558.5,1028" style="fill:none;stroke:rgb(85,142,213)" clip-path="url(#clip123)" />
<clipPath id="clip124"><path d="M548,1022 L561,1022 L561,1035 L548,1035 L548,1022 Z" /></clipPath>
<path d="M552,1028 L556,1028" style="fill:none;stroke:rgb(150,160,200)" clip-path="url(#clip124)" />
<clipPath id="clip125"><path d="M578,976 L811,976 L811,1033 L578,1033 Z M580,985 L580,1020 L640,1020 L640,985 Z M580,985 Z M580,985" /></clipPath>
<path d="M669,1003.4570313 L640,1002.8476563 L669,993.4570313 L669,982 C669,979.2382813 671.2382813,977 674,977 L804,977 C806.7617188,977 809,979.2382813 809,982 L809,1026 C809,1028.7617188 806.7617188,1031 804,1031 L674,1031 C671.2382813,1031 669,1028.7617188 669,1026 Z M669,1003.4570313" style="fill:rgb(251,240,156);stroke:none" clip-path="url(#clip125)" />
<clipPath id="clip126"><path d="M578,976 L811,976 L811,1033 L578,1033 Z M580,985 L580,1020 L640,1020 L640,985 Z M580,985 Z M580,985" /></clipPath>
<path d="M669,1003.4570313 L640,1002.8476563 L669,993.4570313 L669,982 C669,979.2382813 671.2382813,977 674,977 L804,977 C806.7617188,977 809,979.2382813 809,982 L809,1026 C809,1028.7617188 806.7617188,1031 804,1031 L674,1031 C671.2382813,1031 669,1028.7617188 669,1026 Z M669,1003.4570313" style="fill:none;stroke:rgb(241,189,81);stroke-width:2" clip-path="url(#clip126)" />
<clipPath id="clip127"><path d="M577,982 L644,982 L644,1024 L577,1024 L577,982 Z" /></clipPath>
<path d="M580,1021 L640,1021 Z M580,1021" style="fill:none;stroke:rgb(85,142,213);stroke-width:3" clip-path="url(#clip127)" />
<text x="591" y="1001" style="font:10px Dialog">type</text>
<clipPath id="clip128"><path d="M667,976 L811,976 L811,1033 L667,1033 Z M580,985 L580,1020 L640,1020 L640,985 Z M580,985 Z M580,985" /></clipPath>
<path d="M669,1003.4570313 L640,1002.8476563 L669,993.4570313 L669,982 C669,979.2382813 671.2382813,977 674,977 L804,977 C806.7617188,977 809,979.2382813 809,982 L809,1026 C809,1028.7617188 806.7617188,1031 804,1031 L674,1031 C671.2382813,1031 669,1028.7617188 669,1026 Z M669,1003.4570313" style="fill:rgb(251,240,156);stroke:none" clip-path="url(#clip128)" />
<clipPath id="clip129"><path d="M667,976 L811,976 L811,1033 L667,1033 Z M580,985 L580,1020 L640,1020 L640,985 Z M580,985 Z M580,985" /></clipPath>
<path d="M669,1003.4570313 L640,1002.8476563 L669,993.4570313 L669,982 C669,979.2382813 671.2382813,977 674,977 L804,977 C806.7617188,977 809,979.2382813 809,982 L809,1026 C809,1028.7617188 806.7617188,1031 804,1031 L674,1031 C671.2382813,1031 669,1028.7617188 669,1026 Z M669,1003.4570313" style="fill:none;stroke:rgb(241,189,81);stroke-width:2" clip-path="url(#clip129)" />
<text x="683" y="1001" style="font:13px Dialog">filesystem</text>
<clipPath id="clip130"><path d="M567,1043 L636,1043 L636,1085 L567,1085 L567,1043 Z" /></clipPath>
<path d="M570,1082 L632,1082 Z M570,1082" style="fill:none;stroke:rgb(85,142,213);stroke-width:3" clip-path="url(#clip130)" />
<text x="581" y="1062" style="font:10px Dialog">path</text>
</svg>
