<?xml version="1.0" encoding="UTF-8"?>
<!DOCTYPE svg PUBLIC "-//W3C//DTD SVG 1.1//EN" "http://www.w3.org/Graphics/SVG/1.1/DTD/svg11.dtd">
<svg version="1.2" xmlns="http://www.w3.org/2000/svg" xmlns:xlink="http://www.w3.org/1999/xlink" x="0" y="0" width="589" height="591" viewBox="0 0 589 591">
<style type="text/css"><![CDATA[
text { font:12px Dialog; }
]]></style>
<rect x="-1241" y="-1174" width="2986" height="3110" style="fill:rgb(255,255,255);stroke:none" />
<clipPath id="clip1"><path d="M206,170 L489,170 L489,576 L206,576 Z M209,173 L209,258 L345,258 L345,173 Z M209,173 Z M209,173" /></clipPath>
<path d="M277,268 L277,313 C277,317.4140625 280.5859375,321 285,321 L298,321" style="fill:none;stroke:rgb(85,142,213)" clip-path="url(#clip1)" />
<clipPath id="clip2"><path d="M206,170 L489,170 L489,576 L206,576 Z M209,173 L209,258 L345,258 L345,173 Z M209,173 Z M209,173" /></clipPath>
<path d="M277,268 L277,439 C277,443.4140625 280.5859375,447 285,447 L298,447" style="fill:none;stroke:rgb(85,142,213)" clip-path="url(#clip2)" />
<clipPath id="clip3"><path d="M205,169 L490,169 L490,577 L205,577 L205,169 Z" /></clipPath>
<path d="M277,258 L277,268" style="fill:none;stroke:rgb(85,142,213)" clip-path="url(#clip3)" />
<clipPath id="clip4"><path d="M205,169 L350,169 L350,263 L205,263 L205,169 Z" /></clipPath>
<path d="M209,173 L209,258 L345,258 L345,173 Z M209,173" style="fill:rgb(220,230,242);stroke:none" clip-path="url(#clip4)" />
<clipPath id="clip5"><path d="M205,169 L350,169 L350,263 L205,263 L205,169 Z" /></clipPath>
<path d="M209,173 L209,258 L345,258 L345,173 Z M209,173" style="fill:none;stroke:rgb(85,142,213);stroke-width:5" clip-path="url(#clip5)" />
<text x="244" y="213" style="font:18px Dialog">root</text>
<clipPath id="clip6"><path d="M297,293 L448,293 L448,409 L297,409 Z M298,294 L298,348 L446,348 L446,294 Z M298,294 Z M298,294" /></clipPath>
<path d="M372,361 L372,388.6523438 L382,388.6523438" style="fill:none;stroke:rgb(85,142,213)" clip-path="url(#clip6)" />
<clipPath id="clip7"><path d="M296,292 L449,292 L449,410 L296,410 L296,292 Z" /></clipPath>
<path d="M372,348 L372,361" style="fill:none;stroke:rgb(85,142,213)" clip-path="url(#clip7)" />
<clipPath id="clip8"><path d="M296,292 L449,292 L449,351 L296,351 L296,292 Z" /></clipPath>
<path d="M298,294 L298,348 L446,348 L446,294 Z M298,294" style="fill:rgb(220,230,242);stroke:none" clip-path="url(#clip8)" />
<clipPath id="clip9"><path d="M296,292 L449,292 L449,351 L296,351 L296,292 Z" /></clipPath>
<path d="M298,294 L298,348 L446,348 L446,294 Z M298,294" style="fill:none;stroke:rgb(85,142,213);stroke-width:2" clip-path="url(#clip9)" />
<text x="312" y="318" style="font:13px Dialog">map_node</text>
<clipPath id="clip10"><path d="M366,349 L379,349 L379,362 L366,362 L366,349 Z" /></clipPath>
<path d="M376.5,355 C376.5,352.515625 374.484375,350.5 372,350.5 C369.515625,350.5 367.5,352.515625 367.5,355 C367.5,357.484375 369.515625,359.5 372,359.5 C374.484375,359.5 376.5,357.484375 376.5,355 Z M376.5,355" style="fill:rgb(250,250,250);stroke:none" clip-path="url(#clip10)" />
<clipPath id="clip11"><path d="M366,349 L379,349 L379,362 L366,362 L366,349 Z" /></clipPath>
<path d="M376.5,355 C376.5,352.515625 374.484375,350.5 372,350.5 C369.515625,350.5 367.5,352.515625 367.5,355 C367.5,357.484375 369.515625,359.5 372,359.5 C374.484375,359.5 376.5,357.484375 376.5,355 Z M376.5,355" style="fill:none;stroke:rgb(85,142,213)" clip-path="url(#clip11)" />
<clipPath id="clip12"><path d="M366,349 L379,349 L379,362 L366,362 L366,349 Z" /></clipPath>
<path d="M370,355 L374,355" style="fill:none;stroke:rgb(150,160,200)" clip-path="url(#clip12)" />
<clipPath id="clip13"><path d="M379,368 L447,368 L447,410 L379,410 L379,368 Z" /></clipPath>
<path d="M382,371 L382,406 L443,406 L443,371 Z M382,371" style="fill:rgb(240,240,240);stroke:none" clip-path="url(#clip13)" />
<clipPath id="clip14"><path d="M379,368 L447,368 L447,410 L379,410 L379,368 Z" /></clipPath>
<path d="M382,371 L382,406 L443,406 L443,371 Z M382,371" style="fill:none;stroke:rgb(85,142,213);stroke-width:3" clip-path="url(#clip14)" />
<text x="393" y="387" style="font:10px Dialog">map</text>
<clipPath id="clip15"><path d="M297,419 L489,419 L489,576 L297,576 Z M298,420 L298,474 L432,474 L432,420 Z M298,420 Z M298,420" /></clipPath>
<path d="M365,487 L365,514.7734375 L375,514.7734375" style="fill:none;stroke:rgb(85,142,213)" clip-path="url(#clip15)" />
<clipPath id="clip16"><path d="M297,419 L489,419 L489,576 L297,576 Z M298,420 L298,474 L432,474 L432,420 Z M298,420 Z M298,420" /></clipPath>
<path d="M365,487 L365,555.7773438 L375,555.7773438" style="fill:none;stroke:rgb(85,142,213)" clip-path="url(#clip16)" />
<clipPath id="clip17"><path d="M296,418 L490,418 L490,577 L296,577 L296,418 Z" /></clipPath>
<path d="M365,474 L365,487" style="fill:none;stroke:rgb(85,142,213)" clip-path="url(#clip17)" />
<clipPath id="clip18"><path d="M296,418 L435,418 L435,477 L296,477 L296,418 Z" /></clipPath>
<path d="M298,420 L298,474 L432,474 L432,420 Z M298,420" style="fill:rgb(220,230,242);stroke:none" clip-path="url(#clip18)" />
<clipPath id="clip19"><path d="M296,418 L435,418 L435,477 L296,477 L296,418 Z" /></clipPath>
<path d="M298,420 L298,474 L432,474 L432,420 Z M298,420" style="fill:none;stroke:rgb(85,142,213);stroke-width:2" clip-path="url(#clip19)" />
<text x="312" y="444" style="font:13px Dialog">sky_node</text>
<clipPath id="clip20"><path d="M359,475 L372,475 L372,488 L359,488 L359,475 Z" /></clipPath>
<path d="M369.5,481 C369.5,478.515625 367.484375,476.5 365,476.5 C362.515625,476.5 360.5,478.515625 360.5,481 C360.5,483.484375 362.515625,485.5 365,485.5 C367.484375,485.5 369.5,483.484375 369.5,481 Z M369.5,481" style="fill:rgb(250,250,250);stroke:none" clip-path="url(#clip20)" />
<clipPath id="clip21"><path d="M359,475 L372,475 L372,488 L359,488 L359,475 Z" /></clipPath>
<path d="M369.5,481 C369.5,478.515625 367.484375,476.5 365,476.5 C362.515625,476.5 360.5,478.515625 360.5,481 C360.5,483.484375 362.515625,485.5 365,485.5 C367.484375,485.5 369.5,483.484375 369.5,481 Z M369.5,481" style="fill:none;stroke:rgb(85,142,213)" clip-path="url(#clip21)" />
<clipPath id="clip22"><path d="M359,475 L372,475 L372,488 L359,488 L359,475 Z" /></clipPath>
<path d="M363,481 L367,481" style="fill:none;stroke:rgb(150,160,200)" clip-path="url(#clip22)" />
<clipPath id="clip23"><path d="M372,494 L489,494 L489,536 L372,536 L372,494 Z" /></clipPath>
<path d="M375,497 L375,532 L485,532 L485,497 Z M375,497" style="fill:rgb(240,240,240);stroke:none" clip-path="url(#clip23)" />
<clipPath id="clip24"><path d="M372,494 L489,494 L489,536 L372,536 L372,494 Z" /></clipPath>
<path d="M375,497 L375,532 L485,532 L485,497 Z M375,497" style="fill:none;stroke:rgb(85,142,213);stroke-width:3" clip-path="url(#clip24)" />
<text x="386" y="513" style="font:10px Dialog">data_time</text>
<clipPath id="clip25"><path d="M372,535 L490,535 L490,577 L372,577 L372,535 Z" /></clipPath>
<path d="M375,538 L375,573 L486,573 L486,538 Z M375,538" style="fill:rgb(240,240,240);stroke:none" clip-path="url(#clip25)" />
<clipPath id="clip26"><path d="M372,535 L490,535 L490,577 L372,577 L372,535 Z" /></clipPath>
<path d="M375,538 L375,573 L486,573 L486,538 Z M375,538" style="fill:none;stroke:rgb(85,142,213);stroke-width:3" clip-path="url(#clip26)" />
<text x="386" y="554" style="font:10px Dialog">brightness</text>
<clipPath id="clip27"><path d="M261,20 L512,20 L512,75 L261,75 L261,20 Z" /></clipPath>
<path d="M270,21 C265.5820313,21 262,24.5820313 262,29 L262,65 C262,69.4179688 265.5820313,73 270,73 L502,73 C506.4179688,73 510,69.4179688 510,65 L510,29 C510,24.5820313 506.4179688,21 502,21 Z M270,21" style="fill:rgb(85,142,213);stroke:none" clip-path="url(#clip27)" />
<text x="276" y="45" style="font:13px Dialog">earth_manipulator</text>
<clipPath id="clip28"><path d="M17,127 L125,127 L125,182 L17,182 L17,127 Z" /></clipPath>
<path d="M26,128 C21.5820313,128 18,131.5820313 18,136 L18,172 C18,176.4179688 21.5820313,180 26,180 L115,180 C119.4179688,180 123,176.4179688 123,172 L123,136 C123,131.5820313 119.4179688,128 115,128 Z M26,128" style="fill:rgb(85,142,213);stroke:none" clip-path="url(#clip28)" />
<text x="32" y="152" style="font:13px Dialog">viewer</text>
<clipPath id="clip29"><path d="M347,69 L410,69 L410,170 L347,170 L347,69 Z" /></clipPath>
<path d="M377.5742188,73 C351,155 406,211 380.34375,294" style="fill:none;stroke:rgb(119,147,60);stroke-width:3;stroke-dasharray:18,9;stroke-dashoffset:0" clip-path="url(#clip29)" />
<clipPath id="clip30"><path d="M347,198 L410,198 L410,298 L347,298 L347,198 Z" /></clipPath>
<path d="M377.5742188,73 C351,155 406,211 380.34375,294" style="fill:none;stroke:rgb(119,147,60);stroke-width:3;stroke-dasharray:18,9;stroke-dashoffset:0" clip-path="url(#clip30)" />
<clipPath id="clip31"><path d="M347,168 L355,168 L355,200 L347,200 L347,168 Z" /></clipPath>
<path d="M377.5742188,73 C351,155 406,211 380.34375,294" style="fill:none;stroke:rgb(119,147,60);stroke-width:3;stroke-dasharray:18,9;stroke-dashoffset:0" clip-path="url(#clip31)" />
<clipPath id="clip32"><path d="M402,168 L410,168 L410,200 L402,200 L402,168 Z" /></clipPath>
<path d="M377.5742188,73 C351,155 406,211 380.34375,294" style="fill:none;stroke:rgb(119,147,60);stroke-width:3;stroke-dasharray:18,9;stroke-dashoffset:0" clip-path="url(#clip32)" />
<clipPath id="clip33"><path d="M353,168 L404,168 L404,200 L353,200 L353,168 Z" /></clipPath>
<path d="M377.5742188,73 C351,155 406,211 380.34375,294" style="fill:none;stroke:rgb(119,147,60);opacity:0.09803921568627451;stroke-width:3;stroke-dasharray:18,9;stroke-dashoffset:0" clip-path="url(#clip33)" />
<clipPath id="clip34"><path d="M347,69 L410,69 L410,298 L347,298 L347,69 Z" /></clipPath>
<path d="M378.125,284.25 L380.34375,294 L387.6796875,287.203125 Z M378.125,284.25" style="fill:rgb(119,147,60);stroke:none" clip-path="url(#clip34)" />
<clipPath id="clip35"><path d="M347,69 L410,69 L410,298 L347,298 L347,69 Z" /></clipPath>
<path d="M378.125,284.25 L380.34375,294 L387.6796875,287.203125 Z M378.125,284.25" style="fill:none;stroke:rgb(119,147,60);stroke-width:3" clip-path="url(#clip35)" />
<text x="356" y="183" style="font:10px Dialog">Node</text>
<clipPath id="clip36"><path d="M56,14 L266,14 L266,34 L56,34 L56,14 Z" /></clipPath>
<path d="M70.2148438,128 C69,18 201,50 262,49.0117188" style="fill:none;stroke:rgb(119,147,60);stroke-width:3;stroke-dasharray:18,9;stroke-dashoffset:0" clip-path="url(#clip36)" />
<clipPath id="clip37"><path d="M56,62 L266,62 L266,132 L56,132 L56,62 Z" /></clipPath>
<path d="M70.2148438,128 C69,18 201,50 262,49.0117188" style="fill:none;stroke:rgb(119,147,60);stroke-width:3;stroke-dasharray:18,9;stroke-dashoffset:0" clip-path="url(#clip37)" />
<clipPath id="clip38"><path d="M228,32 L266,32 L266,64 L228,64 L228,32 Z" /></clipPath>
<path d="M70.2148438,128 C69,18 201,50 262,49.0117188" style="fill:none;stroke:rgb(119,147,60);stroke-width:3;stroke-dasharray:18,9;stroke-dashoffset:0" clip-path="url(#clip38)" />
<clipPath id="clip39"><path d="M56,32 L230,32 L230,64 L56,64 L56,32 Z" /></clipPath>
<path d="M70.2148438,128 C69,18 201,50 262,49.0117188" style="fill:none;stroke:rgb(119,147,60);opacity:0.09803921568627451;stroke-width:3;stroke-dasharray:18,9;stroke-dashoffset:0" clip-path="url(#clip39)" />
<clipPath id="clip40"><path d="M56,14 L266,14 L266,132 L56,132 L56,14 Z" /></clipPath>
<path d="M253.421875,54.1523438 L262,49.0117188 L253.2617188,44.1523438 Z M253.421875,54.1523438" style="fill:rgb(119,147,60);stroke:none" clip-path="url(#clip40)" />
<clipPath id="clip41"><path d="M56,14 L266,14 L266,132 L56,132 L56,14 Z" /></clipPath>
<path d="M253.421875,54.1523438 L262,49.0117188 L253.2617188,44.1523438 Z M253.421875,54.1523438" style="fill:none;stroke:rgb(119,147,60);stroke-width:3" clip-path="url(#clip41)" />
<text x="59" y="47" style="font:10px Dialog">CameraManipulator</text>
<clipPath id="clip42"><path d="M72,176 L213,176 L213,208 L72,208 L72,176 Z" /></clipPath>
<path d="M76.1875,180 C88,234 188,224 209,221.9960938" style="fill:none;stroke:rgb(119,147,60);stroke-width:3;stroke-dasharray:18,9;stroke-dashoffset:0" clip-path="url(#clip42)" />
<clipPath id="clip43"><path d="M72,206 L94,206 L94,238 L72,238 L72,206 Z" /></clipPath>
<path d="M76.1875,180 C88,234 188,224 209,221.9960938" style="fill:none;stroke:rgb(119,147,60);stroke-width:3;stroke-dasharray:18,9;stroke-dashoffset:0" clip-path="url(#clip43)" />
<clipPath id="clip44"><path d="M186,206 L213,206 L213,238 L186,238 L186,206 Z" /></clipPath>
<path d="M76.1875,180 C88,234 188,224 209,221.9960938" style="fill:none;stroke:rgb(119,147,60);stroke-width:3;stroke-dasharray:18,9;stroke-dashoffset:0" clip-path="url(#clip44)" />
<clipPath id="clip45"><path d="M92,206 L188,206 L188,238 L92,238 L92,206 Z" /></clipPath>
<path d="M76.1875,180 C88,234 188,224 209,221.9960938" style="fill:none;stroke:rgb(119,147,60);opacity:0.09803921568627451;stroke-width:3;stroke-dasharray:18,9;stroke-dashoffset:0" clip-path="url(#clip45)" />
<clipPath id="clip46"><path d="M72,176 L213,176 L213,238 L72,238 L72,176 Z" /></clipPath>
<path d="M200.8554688,227.796875 L209,221.9960938 L199.9023438,217.8398438 Z M200.8554688,227.796875" style="fill:rgb(119,147,60);stroke:none" clip-path="url(#clip46)" />
<clipPath id="clip47"><path d="M72,176 L213,176 L213,238 L72,238 L72,176 Z" /></clipPath>
<path d="M200.8554688,227.796875 L209,221.9960938 L199.9023438,217.8398438 Z M200.8554688,227.796875" style="fill:none;stroke:rgb(119,147,60);stroke-width:3" clip-path="url(#clip47)" />
<text x="95" y="221" style="font:10px Dialog">SceneData</text>
<clipPath id="clip48"><path d="M428,379 L575,379 L575,450 L428,450 L428,379 Z" /></clipPath>
<path d="M432,446.3476563 C571,445 519,388 443,388.3554688" style="fill:none;stroke:rgb(119,147,60);stroke-width:3;stroke-dasharray:18,9;stroke-dashoffset:0" clip-path="url(#clip48)" />
<clipPath id="clip49"><path d="M428,379 L575,379 L575,450 L428,450 L428,379 Z" /></clipPath>
<path d="M451.6367188,383.3164063 L443,388.3554688 L451.6835938,393.3164063 Z M451.6367188,383.3164063" style="fill:rgb(119,147,60);stroke:none" clip-path="url(#clip49)" />
<clipPath id="clip50"><path d="M428,379 L575,379 L575,450 L428,450 L428,379 Z" /></clipPath>
<path d="M451.6367188,383.3164063 L443,388.3554688 L451.6835938,393.3164063 Z M451.6367188,383.3164063" style="fill:none;stroke:rgb(119,147,60);stroke-width:3" clip-path="url(#clip50)" />
<clipPath id="clip51"><path d="M14,176 L302,176 L302,320 L14,320 L14,176 Z" /></clipPath>
<path d="M298,445.2382813 C175,442 18,242 54.9882813,180" style="fill:none;stroke:rgb(119,147,60);stroke-width:3;stroke-dasharray:18,9;stroke-dashoffset:0" clip-path="url(#clip51)" />
<clipPath id="clip52"><path d="M14,348 L302,348 L302,449 L14,449 L14,348 Z" /></clipPath>
<path d="M298,445.2382813 C175,442 18,242 54.9882813,180" style="fill:none;stroke:rgb(119,147,60);stroke-width:3;stroke-dasharray:18,9;stroke-dashoffset:0" clip-path="url(#clip52)" />
<clipPath id="clip53"><path d="M14,318 L90,318 L90,350 L14,350 L14,318 Z" /></clipPath>
<path d="M298,445.2382813 C175,442 18,242 54.9882813,180" style="fill:none;stroke:rgb(119,147,60);stroke-width:3;stroke-dasharray:18,9;stroke-dashoffset:0" clip-path="url(#clip53)" />
<clipPath id="clip54"><path d="M144,318 L302,318 L302,350 L144,350 L144,318 Z" /></clipPath>
<path d="M298,445.2382813 C175,442 18,242 54.9882813,180" style="fill:none;stroke:rgb(119,147,60);stroke-width:3;stroke-dasharray:18,9;stroke-dashoffset:0" clip-path="url(#clip54)" />
<clipPath id="clip55"><path d="M88,318 L146,318 L146,350 L88,350 L88,318 Z" /></clipPath>
<path d="M298,445.2382813 C175,442 18,242 54.9882813,180" style="fill:none;stroke:rgb(119,147,60);opacity:0.09803921568627451;stroke-width:3;stroke-dasharray:18,9;stroke-dashoffset:0" clip-path="url(#clip55)" />
<clipPath id="clip56"><path d="M14,176 L302,176 L302,449 L14,449 L14,176 Z" /></clipPath>
<path d="M54.84375,190 L54.9882813,180 L46.2578125,184.875 Z M54.84375,190" style="fill:rgb(119,147,60);stroke:none" clip-path="url(#clip56)" />
<clipPath id="clip57"><path d="M14,176 L302,176 L302,449 L14,449 L14,176 Z" /></clipPath>
<path d="M54.84375,190 L54.9882813,180 L46.2578125,184.875 Z M54.84375,190" style="fill:none;stroke:rgb(119,147,60);stroke-width:3" clip-path="url(#clip57)" />
<text x="91" y="332" style="font:10px Dialog">attath</text>
</svg>
